#!OML:ASF H:\Dans Jumps\Project 1\Capture day 1\Session 1\subject.ASF
:FULLY-SPECIFIED
:DEGREES
365
root 0.33717 16.7794 4.58227 4.37489 -0.04433 -2.0914
lowerback 12.079 1.05201 -0.837907
upperback 6.06961 1.3214 1.39508
thorax -0.477666 0.621925 1.75722
lowerneck -15.1916 -0.74942 -1.10552
upperneck 29.1046 -1.36705 1.99844
head 12.1153 -0.467595 0.742231
rclavicle 5.81445e-015 -8.94531e-016
rhumerus -22.4038 -18.3651 -79.4372
rradius 22.9737
rwrist 40.6147
rhand -23.1536 -27.2911
rfingers 7.12502
rthumb 3.29478 -57.2454
lclavicle 5.81445e-015 -8.94531e-016
lhumerus -27.1844 11.9306 83.247
lradius 12.4208
lwrist 6.1572
lhand -25.297 -8.79143
lfingers 7.12502
lthumb 1.22469 21.1848
rfemur -32.8543 -2.71763 21.8524
rtibia 45.7107
rfoot -14.348 0.270277
rtoes 10.188
lfemur -33.0154 4.14837 -16.4119
ltibia 43.5823
lfoot -10.5064 7.39006
ltoes -3.57327
366
root 0.345012 16.8614 4.63542 4.7679 -0.116538 -2.02134
lowerback 11.748 1.02827 -0.875103
upperback 5.96402 1.28811 1.39545
thorax -0.408889 0.604824 1.78643
lowerneck -15.121 -0.705599 -1.14839
upperneck 29.0326 -1.28994 1.99302
head 12.0707 -0.43964 0.758456
rclavicle -1.20762e-014 -1.19271e-014
rhumerus -22.6575 -18.6243 -79.1166
rradius 22.826
rwrist 40.8162
rhand -23.2115 -27.3365
rfingers 7.12502
rthumb 3.23881 -57.2916
lclavicle -1.20762e-014 -1.19271e-014
lhumerus -27.4609 11.8475 83.0586
lradius 12.26
lwrist 5.12403
lhand -25.4411 -8.56034
lfingers 7.12502
lthumb 1.08552 21.4166
rfemur -32.3107 -2.83783 21.7855
rtibia 44.2867
rfoot -13.9453 0.527098
rtoes 10.7929
lfemur -32.3733 3.91727 -16.4765
ltibia 42.1039
lfoot -10.154 7.40975
ltoes -3.25398
367
root 0.35348 16.9394 4.68896 5.17972 -0.203645 -1.96366
lowerback 11.37 1.00355 -0.895876
upperback 5.85044 1.25561 1.39808
thorax -0.322315 0.588354 1.80902
lowerneck -15.0423 -0.658595 -1.19549
upperneck 28.9539 -1.20561 1.98241
head 12.0217 -0.409609 0.774389
rclavicle 5.01931e-015 4.67144e-015
rhumerus -22.9489 -18.8668 -78.7767
rradius 22.715
rwrist 40.8554
rhand -23.3168 -27.4097
rfingers 7.12502
rthumb 3.13719 -57.3664
lclavicle 5.01931e-015 4.67144e-015
lhumerus -27.761 11.7929 82.8252
lradius 12.0782
lwrist 3.89706
lhand -25.5049 -8.33714
lfingers 7.12502
lthumb 1.02394 21.6401
rfemur -31.8066 -2.9963 21.7461
rtibia 42.8857
rfoot -13.5583 0.800077
rtoes 11.3831
lfemur -31.771 3.74378 -16.5354
ltibia 40.6466
lfoot -9.79481 7.4088
ltoes -2.98955
368
root 0.362326 17.0135 4.74327 5.60497 -0.30654 -1.91967
lowerback 10.9479 0.979845 -0.898056
upperback 5.73548 1.22646 1.40051
thorax -0.212471 0.573773 1.82093
lowerneck -14.9733 -0.612013 -1.23408
upperneck 28.876 -1.11933 1.95493
head 11.9749 -0.37979 0.782722
rclavicle -1.40143e-014 -4.27387e-015
rhumerus -23.2729 -19.0799 -78.4294
rradius 22.6469
rwrist 40.7619
rhand -23.4519 -27.4888
rfingers 7.12502
rthumb 3.00669 -57.4473
lclavicle -1.40143e-014 -4.27387e-015
lhumerus -28.0759 11.7318 82.5636
lradius 11.9136
lwrist 2.68376
lhand -25.4739 -8.12324
lfingers 7.12502
lthumb 1.05387 21.8539
rfemur -31.3361 -3.17736 21.7312
rtibia 41.5144
rfoot -13.1874 1.08624
rtoes 11.9671
lfemur -31.206 3.63363 -16.5886
ltibia 39.2195
lfoot -9.43085 7.39209
ltoes -2.78844
369
root 0.371292 17.0833 4.79834 6.03516 -0.422747 -1.87779
lowerback 10.4935 0.957149 -0.894843
upperback 5.62033 1.19918 1.39969
thorax -0.084569 0.560146 1.82646
lowerneck -14.9129 -0.567582 -1.27221
upperneck 28.8071 -1.03374 1.91824
head 11.9334 -0.351253 0.787425
rclavicle -6.5102e-015 5.96354e-016
rhumerus -23.6058 -19.3146 -78.0667
rradius 22.5688
rwrist 40.6318
rhand -23.603 -27.545
rfingers 7.12502
rthumb 2.86073 -57.5055
lclavicle -6.5102e-015 5.96354e-016
lhumerus -28.3942 11.6585 82.2822
lradius 11.7767
lwrist 1.65096
lhand -25.3065 -7.90462
lfingers 7.12502
lthumb 1.21553 22.0717
rfemur -30.8922 -3.37391 21.7231
rtibia 40.1812
rfoot -12.8338 1.38163
rtoes 12.5274
lfemur -30.6718 3.58047 -16.6487
ltibia 37.8272
lfoot -9.06646 7.36508
ltoes -2.63562
370
root 0.380204 17.1483 4.85367 6.45857 -0.551146 -1.84384
lowerback 10.0263 0.93648 -0.879151
upperback 5.50808 1.17554 1.39493
thorax 0.0541909 0.548537 1.82054
lowerneck -14.8803 -0.525188 -1.29466
upperneck 28.7637 -0.949519 1.86086
head 11.9076 -0.323987 0.781637
rclavicle -3.77691e-015 -5.26779e-015
rhumerus -23.9594 -19.5266 -77.7012
rradius 22.5115
rwrist 40.4627
rhand -23.7309 -27.5791
rfingers 7.12502
rthumb 2.73721 -57.5413
lclavicle -3.77691e-015 -5.26779e-015
lhumerus -28.7065 11.5408 82.0026
lradius 11.673
lwrist 0.898392
lhand -25.1478 -7.72342
lfingers 7.12502
lthumb 1.36886 22.2519
rfemur -30.4687 -3.56645 21.7223
rtibia 38.8968
rfoot -12.4974 1.67435
rtoes 13.0525
lfemur -30.1602 3.57624 -16.7077
ltibia 36.4769
lfoot -8.70708 7.32894
ltoes -2.5195
371
root 0.388897 17.2085 4.90887 6.85748 -0.692851 -1.79497
lowerback 9.56914 0.917827 -0.877926
upperback 5.40035 1.15309 1.38121
thorax 0.192748 0.537307 1.81311
lowerneck -14.8583 -0.484502 -1.30486
upperneck 28.7417 -0.866304 1.78627
head 11.8925 -0.297913 0.767301
rclavicle -1.83876e-015 6.95746e-015
rhumerus -24.3258 -19.7223 -77.3338
rradius 22.4578
rwrist 40.3131
rhand -23.8251 -27.5828
rfingers 7.12502
rthumb 2.64631 -57.5462
lclavicle -1.83876e-015 6.95746e-015
lhumerus -29.0101 11.4187 81.7106
lradius 11.6066
lwrist 0.470653
lhand -24.8858 -7.45448
lfingers 7.12502
lthumb 1.62189 22.5191
rfemur -30.0526 -3.74351 21.6983
rtibia 37.6719
rfoot -12.1852 1.95564
rtoes 13.5112
lfemur -29.653 3.6125 -16.7895
ltibia 35.1745
lfoot -8.36735 7.28096
ltoes -2.40728
372
root 0.397225 17.2634 4.96311 7.22125 -0.843253 -1.72515
lowerback 9.14309 0.900403 -0.899768
upperback 5.29996 1.13032 1.35848
thorax 0.322308 0.52554 1.80887
lowerneck -14.8555 -0.447068 -1.31152
upperneck 28.7448 -0.786441 1.70337
head 11.8912 -0.273886 0.748949
rclavicle 2.38542e-015 -1.0138e-014
rhumerus -24.697 -19.8953 -76.9674
rradius 22.4048
rwrist 40.2119
rhand -23.8911 -27.5619
rfingers 7.12502
rthumb 2.58253 -57.526
lclavicle 2.38542e-015 -1.0138e-014
lhumerus -29.3024 11.3329 81.3928
lradius 11.5578
lwrist 0.277897
lhand -24.6105 -7.17052
lfingers 7.12502
lthumb 1.88772 22.8009
rfemur -29.6397 -3.88976 21.6408
rtibia 36.5147
rfoot -11.8997 2.20883
rtoes 13.8903
lfemur -29.1454 3.67981 -16.8983
ltibia 33.9284
lfoot -8.05378 7.21398
ltoes -2.28561
373
root 0.40517 17.3127 5.0161 7.53684 -1.00151 -1.64697
lowerback 8.76223 0.88385 -0.931948
upperback 5.20891 1.1079 1.33007
thorax 0.437238 0.513821 1.80389
lowerneck -14.859 -0.410803 -1.31015
upperneck 28.7656 -0.707631 1.61046
head 11.8982 -0.250717 0.725441
rclavicle -1.63997e-014 1.59028e-015
rhumerus -25.0816 -20.0179 -76.6075
rradius 22.3636
rwrist 40.1601
rhand -23.9215 -27.5398
rfingers 7.12502
rthumb 2.55314 -57.5042
lclavicle -1.63997e-014 1.59028e-015
lhumerus -29.5805 11.3406 81.0218
lradius 11.5104
lwrist 0.202631
lhand -24.3001 -6.82203
lfingers 7.12502
lthumb 2.18754 23.1465
rfemur -29.2173 -3.98668 21.5602
rtibia 35.4287
rfoot -11.6459 2.41801
rtoes 14.1863
lfemur -28.6273 3.77187 -17.0173
ltibia 32.7475
lfoot -7.77275 7.12803
ltoes -2.14044
374
root 0.412938 17.3569 5.06788 7.79538 -1.15916 -1.5633
lowerback 8.43822 0.865574 -0.969854
upperback 5.12783 1.08277 1.29953
thorax 0.531768 0.500706 1.79934
lowerneck -14.8626 -0.378389 -1.30988
upperneck 28.8009 -0.633321 1.51478
head 11.9112 -0.230061 0.700523
rclavicle 7.65321e-015 4.57205e-015
rhumerus -25.4799 -20.0927 -76.25
rradius 22.3287
rwrist 40.1762
rhand -23.9259 -27.5111
rfingers 7.12502
rthumb 2.54891 -57.4756
lclavicle 7.65321e-015 4.57205e-015
lhumerus -29.8567 11.5092 80.5659
lradius 11.448
lwrist 0.0604629
lhand -23.9664 -6.47932
lfingers 7.12502
lthumb 2.50976 23.4857
rfemur -28.7729 -4.03519 21.4586
rtibia 34.4134
rfoot -11.4258 2.57588
rtoes 14.4013
lfemur -28.0917 3.88564 -17.1429
ltibia 31.637
lfoot -7.52781 7.01593
ltoes -1.96886
375
root 0.420437 17.3959 5.11765 8.00454 -1.31142 -1.49999
lowerback 8.16857 0.845183 -0.990144
upperback 5.05602 1.05596 1.27635
thorax 0.606552 0.487094 1.79182
lowerneck -14.8554 -0.347112 -1.31629
upperneck 28.8354 -0.55957 1.4216
head 11.9218 -0.210135 0.677588
rclavicle 8.00108e-015 -7.95139e-016
rhumerus -25.8783 -20.1585 -75.8847
rradius 22.2797
rwrist 40.2882
rhand -23.9101 -27.483
rfingers 7.12502
rthumb 2.56419 -57.4473
lclavicle 8.00108e-015 -7.95139e-016
lhumerus -30.1242 11.8474 80.0243
lradius 11.3462
lwrist -0.293974
lhand -23.713 -6.19373
lfingers 7.12502
lthumb 2.75453 23.7682
rfemur -28.3156 -4.02353 21.3663
rtibia 33.4651
rfoot -11.2333 2.66767
rtoes 14.5382
lfemur -27.5555 4.02487 -17.2462
ltibia 30.6032
lfoot -7.3137 6.87483
ltoes -1.80016
376
root 0.427897 17.4304 5.16615 8.16327 -1.45288 -1.44222
lowerback 7.93913 0.821036 -1.00474
upperback 5.00227 1.02437 1.25676
thorax 0.678339 0.471054 1.78467
lowerneck -14.8486 -0.315255 -1.32023
upperneck 28.8656 -0.484757 1.3257
head 11.9308 -0.189843 0.653314
rclavicle -1.19271e-015 -7.95139e-016
rhumerus -26.2698 -20.2061 -75.5197
rradius 22.2232
rwrist 40.4636
rhand -23.8848 -27.4512
rfingers 7.12502
rthumb 2.58866 -57.4153
lclavicle -1.19271e-015 -7.95139e-016
lhumerus -30.3792 12.3629 79.3966
lradius 11.2024
lwrist -0.948176
lhand -23.6093 -5.99784
lfingers 7.12502
lthumb 2.85466 23.9628
rfemur -27.8389 -3.96413 21.2679
rtibia 32.5816
rfoot -11.0711 2.69906
rtoes 14.6106
lfemur -27.0132 4.18762 -17.3454
ltibia 29.6445
lfoot -7.13171 6.70529
ltoes -1.64853
377
root 0.435359 17.4609 5.21312 8.28387 -1.57919 -1.39669
lowerback 7.73563 0.792652 -1.00737
upperback 4.9647 0.987776 1.24478
thorax 0.753001 0.452534 1.77868
lowerneck -14.8194 -0.284472 -1.33349
upperneck 28.875 -0.411361 1.23777
head 11.9272 -0.170232 0.633268
rclavicle -4.07509e-015 -5.76476e-015
rhumerus -26.6458 -20.2425 -75.1532
rradius 22.1502
rwrist 40.6762
rhand -23.8537 -27.435
rfingers 7.12502
rthumb 2.61864 -57.3987
lclavicle -4.07509e-015 -5.76476e-015
lhumerus -30.6241 13.0362 78.6942
lradius 11.0241
lwrist -1.90218
lhand -23.6324 -5.89823
lfingers 7.12502
lthumb 2.8324 24.0627
rfemur -27.3563 -3.8669 21.1744
rtibia 31.7625
rfoot -10.9336 2.67571
rtoes 14.6229
lfemur -26.4816 4.37754 -17.4348
ltibia 28.7624
lfoot -6.98192 6.5062
ltoes -1.52568
378
root 0.442688 17.4878 5.25857 8.37511 -1.68571 -1.35592
lowerback 7.5512 0.75957 -1.00574
upperback 4.94053 0.945069 1.23758
thorax 0.831346 0.430873 1.77535
lowerneck -14.7869 -0.25294 -1.34094
upperneck 28.8791 -0.337894 1.14771
head 11.9209 -0.150211 0.611393
rclavicle 4.47266e-016 7.35503e-015
rhumerus -27.0135 -20.2394 -74.798
rradius 22.086
rwrist 40.8605
rhand -23.7994 -27.4414
rfingers 7.12502
rthumb 2.67108 -57.4044
lclavicle 4.47266e-016 7.35503e-015
lhumerus -30.8638 13.8249 77.9396
lradius 10.8184
lwrist -3.12486
lhand -23.9098 -5.96464
lfingers 7.12502
lthumb 2.56443 23.9997
rfemur -26.8802 -3.73457 21.0791
rtibia 31.0108
rfoot -10.817 2.59838
rtoes 14.5875
lfemur -25.9684 4.58639 -17.522
ltibia 27.9518
lfoot -6.85807 6.28639
ltoes -1.45422
